<mxfile host="app.diagrams.net" agent="Mozilla/5.0 (Windows NT 10.0; Win64; x64) AppleWebKit/537.36 (KHTML, like Gecko) Chrome/131.0.0.0 Safari/537.36 Edg/131.0.0.0" version="24.9.0">
  <diagram id="R2lEEEUBdFMjLlhIrx00" name="Page-1">
    <mxGraphModel dx="1216" dy="919" grid="1" gridSize="10" guides="1" tooltips="1" connect="1" arrows="1" fold="1" page="1" pageScale="1" pageWidth="850" pageHeight="1100" math="0" shadow="0" extFonts="Permanent Marker^https://fonts.googleapis.com/css?family=Permanent+Marker">
      <root>
        <mxCell id="0" />
        <mxCell id="1" parent="0" />
        <mxCell id="2te_wfa_4X3YV4hR2Sw0-1" value="Skill" style="swimlane;childLayout=stackLayout;horizontal=1;startSize=50;horizontalStack=0;rounded=1;fontSize=14;fontStyle=0;strokeWidth=2;resizeParent=0;resizeLast=1;shadow=0;dashed=0;align=center;arcSize=4;whiteSpace=wrap;html=1;" vertex="1" parent="1">
          <mxGeometry x="1260" y="50" width="160" height="120" as="geometry" />
        </mxCell>
        <mxCell id="2te_wfa_4X3YV4hR2Sw0-2" value="SkillID&lt;div&gt;SkillName&lt;/div&gt;&lt;div&gt;Icon&lt;/div&gt;&lt;div&gt;YearsOfExperience&lt;/div&gt;" style="align=left;strokeColor=none;fillColor=none;spacingLeft=4;fontSize=12;verticalAlign=top;resizable=0;rotatable=0;part=1;html=1;" vertex="1" parent="2te_wfa_4X3YV4hR2Sw0-1">
          <mxGeometry y="50" width="160" height="70" as="geometry" />
        </mxCell>
        <mxCell id="2te_wfa_4X3YV4hR2Sw0-3" value="ProjectSkill" style="swimlane;childLayout=stackLayout;horizontal=1;startSize=50;horizontalStack=0;rounded=1;fontSize=14;fontStyle=0;strokeWidth=2;resizeParent=0;resizeLast=1;shadow=0;dashed=0;align=center;arcSize=4;whiteSpace=wrap;html=1;" vertex="1" parent="1">
          <mxGeometry x="610" y="50" width="170" height="140" as="geometry" />
        </mxCell>
        <mxCell id="2te_wfa_4X3YV4hR2Sw0-4" value="ProjectSkillID&lt;div&gt;ProjectID&lt;/div&gt;&lt;div&gt;SkillID&lt;/div&gt;" style="align=left;strokeColor=none;fillColor=none;spacingLeft=4;fontSize=12;verticalAlign=top;resizable=1;rotatable=0;part=1;html=1;" vertex="1" parent="2te_wfa_4X3YV4hR2Sw0-3">
          <mxGeometry y="50" width="170" height="90" as="geometry" />
        </mxCell>
        <mxCell id="2te_wfa_4X3YV4hR2Sw0-5" value="" style="edgeStyle=entityRelationEdgeStyle;fontSize=12;html=1;endArrow=ERzeroToMany;endFill=1;startArrow=ERzeroToMany;rounded=0;entryX=0;entryY=0.25;entryDx=0;entryDy=0;exitX=1;exitY=0.25;exitDx=0;exitDy=0;" edge="1" parent="1" source="2te_wfa_4X3YV4hR2Sw0-4" target="2te_wfa_4X3YV4hR2Sw0-2">
          <mxGeometry width="100" height="100" relative="1" as="geometry">
            <mxPoint x="1170" y="260" as="sourcePoint" />
            <mxPoint x="230" y="590" as="targetPoint" />
            <Array as="points">
              <mxPoint x="60" y="530" />
            </Array>
          </mxGeometry>
        </mxCell>
        <mxCell id="2te_wfa_4X3YV4hR2Sw0-6" value="Skills used in Projects" style="rhombus;whiteSpace=wrap;html=1;fontSize=14;fontStyle=0;startSize=50;rounded=1;strokeWidth=2;shadow=0;dashed=0;arcSize=4;resize=1;" vertex="1" parent="1">
          <mxGeometry x="910" y="60" width="230" height="120" as="geometry" />
        </mxCell>
        <mxCell id="2te_wfa_4X3YV4hR2Sw0-10" value="Project" style="swimlane;childLayout=stackLayout;horizontal=1;startSize=50;horizontalStack=0;rounded=1;fontSize=14;fontStyle=0;strokeWidth=2;resizeParent=0;resizeLast=1;shadow=0;dashed=0;align=center;arcSize=4;whiteSpace=wrap;html=1;" vertex="1" parent="1">
          <mxGeometry x="10" y="50" width="160" height="120" as="geometry" />
        </mxCell>
        <mxCell id="2te_wfa_4X3YV4hR2Sw0-11" value="ProjectID&lt;div&gt;ProjectName&lt;/div&gt;&lt;div&gt;Description&lt;/div&gt;&lt;div&gt;&lt;br&gt;&lt;/div&gt;" style="align=left;strokeColor=none;fillColor=none;spacingLeft=4;fontSize=12;verticalAlign=top;resizable=0;rotatable=0;part=1;html=1;" vertex="1" parent="2te_wfa_4X3YV4hR2Sw0-10">
          <mxGeometry y="50" width="160" height="70" as="geometry" />
        </mxCell>
        <mxCell id="2te_wfa_4X3YV4hR2Sw0-14" value="SkillTypeSkill" style="swimlane;childLayout=stackLayout;horizontal=1;startSize=50;horizontalStack=0;rounded=1;fontSize=14;fontStyle=0;strokeWidth=2;resizeParent=0;resizeLast=1;shadow=0;dashed=0;align=center;arcSize=4;whiteSpace=wrap;html=1;" vertex="1" parent="1">
          <mxGeometry x="620" y="280" width="160" height="120" as="geometry" />
        </mxCell>
        <mxCell id="2te_wfa_4X3YV4hR2Sw0-15" value="+Attribute1&#xa;+Attribute2&#xa;+Attribute3" style="align=left;strokeColor=none;fillColor=none;spacingLeft=4;fontSize=12;verticalAlign=top;resizable=0;rotatable=0;part=1;html=1;" vertex="1" parent="2te_wfa_4X3YV4hR2Sw0-14">
          <mxGeometry y="50" width="160" height="70" as="geometry" />
        </mxCell>
        <mxCell id="2te_wfa_4X3YV4hR2Sw0-19" value="" style="edgeStyle=entityRelationEdgeStyle;fontSize=12;html=1;endArrow=ERzeroToMany;endFill=1;startArrow=ERzeroToMany;rounded=0;entryX=-0.026;entryY=0.214;entryDx=0;entryDy=0;entryPerimeter=0;" edge="1" parent="1" target="2te_wfa_4X3YV4hR2Sw0-4">
          <mxGeometry width="100" height="100" relative="1" as="geometry">
            <mxPoint x="170" y="119.76" as="sourcePoint" />
            <mxPoint x="578.6100000000001" y="119.80000000000003" as="targetPoint" />
            <Array as="points">
              <mxPoint x="-555" y="508.76" />
            </Array>
          </mxGeometry>
        </mxCell>
        <mxCell id="2te_wfa_4X3YV4hR2Sw0-8" value="Projects using Skills" style="rhombus;whiteSpace=wrap;html=1;fontSize=14;fontStyle=0;startSize=50;rounded=1;strokeWidth=2;shadow=0;dashed=0;arcSize=4;" vertex="1" parent="1">
          <mxGeometry x="310" y="60" width="195" height="120" as="geometry" />
        </mxCell>
      </root>
    </mxGraphModel>
  </diagram>
</mxfile>
